<svg id="Layer_1" data-name="Layer 1" xmlns="http://www.w3.org/2000/svg" viewBox="0 0 638 150"><defs><style>.cls-1{fill:#00aa13;}</style></defs><title>Gojek Logo Vector</title><path class="cls-1" d="M227.93,500a28.16,28.16,0,1,1,28.16,28.05A28.1,28.1,0,0,1,227.93,500" transform="translate(-181 -425)"/><path class="cls-1" d="M256.08,425.23A74.93,74.93,0,0,0,181,500c0,31,18.8,57.48,46.09,69a14.07,14.07,0,0,0,18.42-7.51,14.61,14.61,0,0,0,.82-2.66,14,14,0,0,0-8.37-15.7h0a46.95,46.95,0,1,1,36.25,0h0a14,14,0,0,0,5.42,27,14.47,14.47,0,0,0,5.44-1.09c27.29-11.52,46.1-38,46.1-69a74.94,74.94,0,0,0-75.09-74.8" transform="translate(-181 -425)"/><path d="M549,491.72c0-13.53-9.32-23.59-23.84-23.59s-23.85,10.07-23.85,23.6,9.32,23.59,23.85,23.59S549,505.25,549,491.73m-71.06,0c0-24.85,19.74-44.05,47.22-44.05s47.21,19.2,47.21,44.05-19.58,44-47.21,44S478,516.58,478,491.73m86.4,62H577c6.79,0,9.16-2.52,9.16-8.5V447.71h23.37v97.87c0,20.61-8.37,29.42-30.63,29.42H564.37V553.76ZM440.51,496.28c0,10.29-10.49,18.52-23.84,18.52-15.09,0-24.47-8.87-24.47-23.59,0-13.61,10-22.95,25.43-22.95,12.24,0,22.88,8.55,22.88,18.2Zm1-48.62v9.83h-.33c-6-6.33-16-9.81-28-9.81-25.58,0-44.49,19-44.49,43.53,0,25.49,19.38,44.17,45.29,44.17,11.59,0,21.29-3.65,27.17-10.14h.32v8.48c0,11.4-9.86,19.79-22.89,19.79s-20.78-3.69-27.42-10l-15.22,14.58c10.2,10.78,25.57,16.91,43.12,16.91,26.7,0,45-17.84,45-41.58V447.66Zm227.78,18.89c12.46,0,21.15,6.46,22.26,16.21H646.66c1.27-9.75,10-16.21,22.59-16.21m2.41,50.34c-14,0-25-9-25.31-17.77h67.9v-6.6c0-25-17.37-44.84-45.48-44.84-26.53,0-45.47,18.57-45.47,44.21,0,26.42,20,43.88,49.36,43.88,18,0,30.91-8.6,37.64-16.83l-15.83-11.06c-7,6.55-13.44,9-22.81,9M728,425h22.56l.12,57.76H751l37.76-35.28H819l-39.14,36.91,39,51.31h-27l-26.77-37.09h-.31L750.57,512v23.74H728Z" transform="translate(-181 -425)"/></svg>