<svg id="Layer_1" data-name="Layer 1" xmlns="http://www.w3.org/2000/svg" viewBox="0 0 638 137.25"><defs><style>.cls-1{fill:#42b549;}</style></defs><title>Tokopedia Logo Vector</title><path class="cls-1" d="M713.37,464.08h15V537h-1a14,14,0,0,1-14-14ZM586.49,538.23q-14.41,3-28.24-4.68a37.11,37.11,0,0,1-18-22.31c-6.09-19.92,6.39-42.12,26.45-47.5a36.89,36.89,0,0,1,28.55,3.61c15,8.41,20.54,21.42,19.58,38.19l-60.62-.12c.89,6.84,5.13,12.19,11.09,15.52s11.6,4.18,16.75,2.58c5.72-1.8,10.36-6.46,14.14-10.81l12.36,9C603.51,530.73,596.64,536.06,586.49,538.23ZM598,491.8c-1.91-5.88-4.29-8.77-9.77-11.83-13-7.29-25.87-1.09-31.84,11.77Zm206,4.26a17.1,17.1,0,0,0-6.76-14.19c-4.06-3.2-9.14-4.83-15.3-4.83-13.62,0-22.36,10.65-22.36,23.77,0,12.64,9.26,23.18,22.22,23.18,9,0,13.82-5.26,19-11.81v18.9a41.53,41.53,0,0,1-8.7,5.35,29.92,29.92,0,0,1-11.59,2c-21.65,0-35.94-17.94-35.94-38.67,0-10.65,3.31-19.45,10-26.31,7.07-7.27,16.33-10.88,27.67-10.88,21.51,0,36.89,12.35,36.89,34.66V537h-1.06a14,14,0,0,1-14-14ZM727.5,455.43a8.46,8.46,0,0,1-6.61,2.59,8.63,8.63,0,0,1-8.86-8.94c0-5.25,3.63-8.79,8.86-8.79a8.62,8.62,0,0,1,8.86,8.79A9.23,9.23,0,0,1,727.5,455.43ZM685,527.34c-6.91,7.41-15.8,11.11-26.58,11.11-11.37,0-20.64-3.93-27.69-11.8-6.64-7.45-9.94-16.79-9.94-27.91,0-19.7,15.21-36.15,35.2-36.15a42.28,42.28,0,0,1,21.19,5.34v16.29c-5.44-3.67-12.25-7.18-19-7.18-14,0-22.37,9.65-22.37,23.33,0,13.5,8.84,23.62,22.66,23.62a19.72,19.72,0,0,0,15.54-7.07c4.09-4.69,6.22-11.59,6.22-20.86v-50.7a14,14,0,0,1,14-14h1.05v67.07C695.32,510.25,691.91,519.92,685,527.34Zm-162.92.53a33.71,33.71,0,0,1-24.84,10.58,39.94,39.94,0,0,1-21.12-5.51V516.81c5.42,3.68,12.23,7.18,19,7.18,14,0,22.37-9.64,22.37-23.32S508.82,477,494.8,477a19.44,19.44,0,0,0-15.32,6.77c-4.25,4.89-6.45,11.88-6.45,21.12v63.7h-1a14,14,0,0,1-14-14V502.55c0-22.11,13.52-40,36.75-40,11.46,0,20.78,3.92,27.84,11.8,6.64,7.36,9.93,16.69,9.93,27.91A35.11,35.11,0,0,1,522.09,527.87Z" transform="translate(-181 -431.37)"/><path class="cls-1" d="M279.54,483.56A21,21,0,0,0,263.66,477c-13.85,0-22.14,10.1-22.14,23.48,0,13.19,8.49,23.47,22.14,23.47s22.14-10.28,22.14-23.47C285.8,493.51,283.69,487.89,279.54,483.56Zm148,0A21,21,0,0,0,411.68,477c-13.85,0-22.14,10.1-22.14,23.48,0,13.19,8.49,23.47,22.14,23.47s22.13-10.28,22.13-23.47C433.81,493.51,431.71,487.89,427.57,483.56Zm10.86,44.19a38.6,38.6,0,0,1-53.35,0c-7.46-7.16-11.18-16.26-11.18-27.23,0-21.4,16.35-37.93,37.78-37.93a37.25,37.25,0,0,1,26.67,10.78q11.26,10.8,11.26,27.15C449.61,511.49,445.89,520.59,438.43,527.75Zm-77.68-46.13q-3.3,5.55-5.12,8a20.93,20.93,0,0,1-3.93,4.09c10.45,3.39,14.35,10.63,14.35,21.42V537H365a14,14,0,0,1-14-14v-6.39c0-7-3.13-11.73-10.54-11.73H326.79V537h-1.05a14,14,0,0,1-14-14V445.36a14,14,0,0,1,14-14h1.05v58.87h4.45c4.89,0,8.1-1.66,9.94-4.83l12.64-21.33H371Zm-70.34,46.13a38.6,38.6,0,0,1-53.35,0c-7.46-7.16-11.18-16.26-11.18-27.23,0-21.4,16.35-37.93,37.78-37.93a37.28,37.28,0,0,1,26.67,10.78q11.26,10.8,11.25,27.15C301.58,511.49,297.86,520.59,290.41,527.75ZM203,537c-14.71,0-22-10-22-24v-53a14,14,0,0,1,14-14h1.06v18.14h25.42v14.45H196.05v36.11c0,6.15,2.74,7.87,8.6,7.87h16.82V537Z" transform="translate(-181 -431.37)"/></svg>